<?xml version="1.0" encoding="UTF-8" standalone="no"?>
<!DOCTYPE svg PUBLIC "-//W3C//DTD SVG 20010904//EN"
              "http://www.w3.org/TR/2001/REC-SVG-20010904/DTD/svg10.dtd">

<svg xmlns="http://www.w3.org/2000/svg"
     width="64px" height="64px"
     viewBox="0 0 439 398">
  <path id="Selection"
        fill="#772CE8" stroke="black" stroke-width="1"
        d="M 355.00,2.00
           C 363.93,2.31 364.46,7.56 367.58,15.00
             373.24,28.50 376.68,43.66 379.55,58.00
             380.26,61.56 380.87,74.65 383.51,76.09
             387.04,78.02 392.56,69.47 394.12,67.00
             399.20,58.96 401.99,45.47 401.99,36.00
             401.99,32.85 399.92,24.96 403.31,23.66
             409.18,21.40 412.97,34.03 413.68,38.00
             416.62,54.46 417.81,70.73 409.74,86.00
             397.06,109.97 360.61,116.34 338.00,127.26
             332.70,129.82 327.46,132.28 323.00,136.18
             320.48,138.39 315.23,144.38 312.72,145.43
             310.35,146.41 295.61,146.00 292.00,146.00
             292.80,144.11 294.80,139.78 295.11,138.00
             295.92,133.28 292.41,129.98 288.00,129.23
             284.02,128.55 271.57,131.55 266.00,132.00
             266.00,132.00 275.24,105.00 275.24,105.00
             278.41,92.66 278.00,86.29 277.00,73.84
             280.43,74.46 287.77,76.95 289.97,73.84
             292.29,70.23 287.85,58.80 286.39,55.00
             280.80,40.45 270.14,23.66 270.00,8.00
             278.71,8.70 281.73,16.14 285.87,23.00
             293.68,35.96 304.56,59.68 310.27,74.00
             310.27,74.00 316.50,89.00 316.50,89.00
             317.27,90.89 318.38,94.11 320.32,95.09
             323.15,96.51 324.63,93.09 325.50,90.99
             327.10,85.31 326.44,79.79 325.50,74.00
             324.85,67.07 324.01,64.36 324.00,57.00
             324.00,57.00 324.00,49.00 324.00,49.00
             329.44,50.71 330.13,53.97 332.04,59.00
             335.33,67.68 337.07,76.87 338.43,86.00
             338.87,88.97 339.63,98.53 342.31,99.85
             344.92,101.13 348.17,98.42 349.99,96.81
             355.09,92.31 359.14,85.67 360.59,79.00
             362.83,69.20 362.30,47.98 360.59,38.00
             358.35,25.61 355.00,14.79 355.00,2.00 Z
           M 66.00,55.00
           C 67.86,55.06 69.84,54.93 71.47,55.99
             74.90,58.22 80.04,72.61 81.80,77.00
             91.50,101.24 97.19,114.76 119.00,131.25
             125.17,135.92 131.93,140.81 139.00,144.01
             143.21,145.92 146.93,145.75 145.97,140.00
             145.21,135.52 142.62,134.99 140.35,131.76
             140.35,131.76 131.25,115.00 131.25,115.00
             122.91,98.33 123.25,96.74 117.82,80.00
             117.82,80.00 114.56,73.00 114.56,73.00
             114.56,73.00 110.17,52.00 110.17,52.00
             110.17,52.00 109.00,26.00 109.00,26.00
             109.04,24.17 109.14,18.29 112.63,20.17
             114.86,21.37 115.36,26.62 116.04,29.00
             116.04,29.00 123.00,53.00 123.00,53.00
             130.74,76.50 143.02,107.30 160.37,125.11
             166.13,131.02 175.52,138.05 183.00,141.53
             185.80,142.82 189.90,145.03 192.98,144.04
             204.44,140.36 192.46,122.07 189.52,116.00
             187.95,112.75 188.10,111.28 185.78,108.28
             185.78,108.28 166.49,81.00 166.49,81.00
             164.30,77.73 159.84,71.47 158.50,68.00
             157.59,65.66 157.48,62.58 157.00,60.00
             165.01,60.90 171.27,66.67 177.00,71.93
             189.66,83.55 196.35,94.07 206.15,107.72
             206.15,107.72 214.78,120.00 214.78,120.00
             215.99,121.80 217.85,125.02 220.05,125.66
             225.14,127.15 227.70,112.46 227.91,109.00
             228.35,101.79 225.13,93.59 222.51,87.00
             222.51,87.00 220.01,79.26 220.01,79.26
             220.01,79.26 216.71,75.55 216.71,75.55
             214.99,73.27 215.10,71.37 213.42,69.54
             213.42,69.54 208.28,65.71 208.28,65.71
             208.28,65.71 200.14,57.72 200.14,57.72
             200.14,57.72 195.46,51.58 195.46,51.58
             191.66,48.08 189.22,51.11 187.00,44.00
             190.43,43.17 193.47,42.64 197.00,43.39
             213.03,46.78 230.22,68.50 238.09,82.00
             240.33,85.84 242.15,89.87 243.78,94.00
             244.32,95.38 245.22,98.29 246.50,99.09
             248.29,100.20 249.50,98.29 250.20,96.92
             251.89,93.60 251.98,89.63 252.00,86.00
             252.07,71.80 251.82,68.17 245.54,55.00
             245.54,55.00 238.87,44.00 238.87,44.00
             238.87,44.00 236.04,38.13 236.04,38.13
             233.89,34.70 232.53,35.57 231.00,31.00
             242.62,31.04 248.66,35.31 256.13,44.00
             259.79,48.27 263.01,52.98 265.56,58.00
             272.38,71.41 272.17,88.73 268.22,103.00
             268.22,103.00 262.88,119.00 262.88,119.00
             259.34,130.18 250.43,145.51 262.02,154.69
             273.04,163.42 292.39,151.15 305.00,150.79
             311.15,150.93 321.14,152.78 326.00,150.79
             338.45,144.96 347.26,130.23 364.00,130.00
             367.88,129.95 373.36,129.75 377.00,130.79
             385.97,133.34 389.28,138.55 396.00,143.51
             396.00,143.51 402.00,147.41 402.00,147.41
             407.34,151.58 412.89,159.48 407.57,165.87
             403.15,171.18 386.19,173.50 379.00,175.58
             376.39,176.34 371.31,177.78 369.46,179.74
             365.93,183.49 372.82,184.02 375.00,183.82
             375.00,183.82 396.00,179.00 396.00,179.00
             395.79,187.54 392.29,193.24 385.00,197.87
             376.11,203.51 365.87,201.35 355.00,207.35
             337.37,217.07 325.49,236.65 304.00,238.83
             297.09,239.53 283.71,235.56 277.05,233.20
             272.75,231.69 270.16,226.32 267.74,229.46
             266.30,231.32 267.95,233.53 269.16,234.96
             272.61,239.03 275.70,239.53 280.00,245.00
             265.79,256.35 261.78,258.62 249.29,273.00
             230.09,295.10 216.66,323.20 211.46,352.00
             211.46,352.00 210.72,360.00 210.72,360.00
             210.72,360.00 209.04,372.00 209.04,372.00
             209.04,372.00 209.04,394.00 209.04,394.00
             201.50,387.93 203.70,382.55 201.93,377.00
             201.93,377.00 199.76,372.00 199.76,372.00
             199.76,372.00 198.95,365.00 198.95,365.00
             198.24,362.32 196.85,361.15 196.07,356.00
             195.45,351.56 196.29,350.18 196.07,348.00
             195.45,342.67 194.15,346.77 194.00,334.00
             194.00,334.00 193.04,320.00 193.04,320.00
             193.04,320.00 194.00,305.00 194.00,305.00
             194.23,285.79 203.59,255.79 212.86,239.00
             216.16,233.03 225.96,218.10 230.30,213.00
             232.64,210.25 241.05,201.75 242.10,199.06
             244.17,193.78 235.12,195.42 230.00,194.56
             222.86,193.36 205.51,187.76 200.13,183.43
             198.35,182.01 194.31,177.05 193.00,175.00
             193.00,175.00 204.00,172.46 204.00,172.46
             204.00,172.46 229.00,170.04 229.00,170.04
             229.00,170.04 243.98,170.85 243.98,170.85
             246.02,170.53 248.33,169.67 247.75,167.11
             246.54,161.71 236.57,159.84 232.00,160.68
             232.00,160.68 223.00,163.41 223.00,163.41
             223.00,163.41 211.00,166.33 211.00,166.33
             198.13,169.12 185.17,170.85 172.00,171.00
             172.00,171.00 163.00,171.66 163.00,171.66
             163.00,171.66 142.00,169.78 142.00,169.78
             142.00,169.78 136.00,168.24 136.00,168.24
             136.00,168.24 126.00,166.51 126.00,166.51
             126.00,166.51 105.00,159.10 105.00,159.10
             105.00,159.10 94.00,157.71 94.00,157.71
             94.00,157.71 81.00,155.29 81.00,155.29
             65.42,153.36 49.75,153.23 35.72,145.36
             35.72,145.36 30.26,142.85 30.26,142.85
             30.26,142.85 25.74,138.95 25.74,138.95
             25.74,138.95 21.00,136.42 21.00,136.42
             15.02,132.36 10.01,126.31 6.55,120.10
             3.08,113.87 2.03,118.12 2.00,108.00
             8.39,110.18 9.80,113.36 15.00,117.24
             21.69,122.24 33.79,128.84 42.00,130.38
             45.89,131.11 55.70,131.64 57.23,126.86
             58.29,123.57 55.70,114.16 54.18,111.00
             54.18,111.00 47.46,97.17 47.46,97.17
             42.89,90.43 39.66,89.64 39.00,80.00
             41.02,80.06 43.02,80.03 44.91,80.85
             50.20,83.15 58.08,95.53 62.63,100.33
             64.47,102.28 68.37,106.44 71.01,106.84
             76.99,107.74 76.43,99.60 75.54,96.00
             75.54,96.00 71.43,85.00 71.43,85.00
             68.20,76.02 64.39,64.48 66.00,55.00 Z
           M 380.15,151.69
           C 373.04,156.31 379.35,162.14 387.94,159.57
             389.83,159.01 391.93,157.60 390.83,155.35
             389.26,152.11 383.23,151.36 380.15,151.69 Z
           M 304.91,160.74
           C 299.95,162.46 301.96,165.38 304.09,165.37
             306.19,165.36 309.41,162.20 304.91,160.74 Z
           M 346.00,222.00
           C 346.00,222.00 348.00,222.00 348.00,222.00
             352.95,233.81 353.02,242.59 353.00,255.00
             352.98,266.38 349.37,269.54 350.60,274.00
             351.65,277.83 358.15,285.08 361.01,288.00
             374.64,301.90 393.94,313.86 412.00,321.10
             412.00,321.10 429.00,327.23 429.00,327.23
             433.08,328.45 435.33,327.73 437.00,332.00
             418.39,332.00 396.67,329.63 380.05,320.57
             375.97,318.36 376.05,317.34 373.74,315.94
             373.74,315.94 369.17,313.85 369.17,313.85
             369.17,313.85 363.91,309.57 363.91,309.57
             363.91,309.57 357.00,306.44 357.00,306.44
             357.00,306.44 350.00,301.56 350.00,301.56
             347.34,299.97 338.20,297.83 335.00,297.72
             327.65,297.47 320.50,300.67 314.00,303.71
             304.84,307.98 291.40,316.69 284.37,323.89
             284.37,323.89 274.11,336.57 274.11,336.57
             274.11,336.57 268.00,343.00 268.00,343.00
             270.75,323.46 277.47,310.80 294.00,299.21
             305.51,291.14 322.86,284.10 331.82,274.00
             340.03,264.73 343.66,250.12 344.83,238.00
             344.83,238.00 346.00,222.00 346.00,222.00 Z" />
</svg>
